<?xml version="1.0" encoding="UTF-8" standalone="no" ?>
<!DOCTYPE svg PUBLIC "-//W3C//DTD SVG 1.1//EN" "http://www.w3.org/Graphics/SVG/1.1/DTD/svg11.dtd">
<svg xmlns="http://www.w3.org/2000/svg" xmlns:xlink="http://www.w3.org/1999/xlink" version="1.1" width="100" height="100" viewBox="0 0 100 100" xml:space="preserve">
<desc>Created with Fabric.js 5.3.0</desc>
<defs>
</defs>
<g transform="matrix(0.4114502022 0 0 0.4118300454 50 50)" id="urqgePUbeS704-VhT59PH"  >
<g style="" vector-effect="non-scaling-stroke"   >
		<g transform="matrix(1 0 0 1 0 0)" id="_GCbaWGCCjcisHHp19oSS"  >
<linearGradient id="SVGID_4" gradientUnits="userSpaceOnUse" gradientTransform="matrix(1 0 0 1 0.00001 0.00001)"  x1="16.61876763255728" y1="12.229287907559254" x2="165.07061711340214" y2="215.63319541408498">
<stop offset="0%" style="stop-color:#E9A9B9;stop-opacity: 1"/>
<stop offset="51.58677901949248%" style="stop-color:#A162B6;stop-opacity: 1"/>
<stop offset="100%" style="stop-color:#AE74CD;stop-opacity: 1"/>
</linearGradient>
<filter id="SVGID_3" y="-22.12185184%" height="144.24370368%" x="-22.06123135%" width="144.1224627%" >
	<feGaussianBlur in="SourceAlpha" stdDeviation="1"></feGaussianBlur>
	<feOffset dx="2" dy="3" result="oBlur" ></feOffset>
	<feFlood flood-color="rgb(0,0,0)" flood-opacity="0.1"/>
	<feComposite in2="oBlur" operator="in" />
	<feMerge>
		<feMergeNode></feMergeNode>
		<feMergeNode in="SourceGraphic"></feMergeNode>
	</feMerge>
</filter>
<path style="stroke: rgb(164,148,29); stroke-width: 0; stroke-dasharray: none; stroke-linecap: butt; stroke-dashoffset: 0; stroke-linejoin: miter; stroke-miterlimit: 4; fill: url(#SVGID_4); fill-rule: nonzero; opacity: 1;filter: url(#SVGID_3);" vector-effect="non-scaling-stroke"  transform=" translate(-97.02939, -117.82162)" d="M 125.04355 0.00001 L 125.04355 0.42764 C 128.18436 0.42807 131.20275999999998 0.9720300000000001 134.01505 1.97322 C 146.37341 4.87467 157.1751 11.09703 166.42013 20.64028 C 180.34658 34.56673 187.30981 51.27847 187.30981 70.7755 C 187.30981 84.91619999999999 183.239 97.87852 175.09738 109.66243 L 175.09736999999998 109.66242 C 187.73829999999998 124.66014 194.05876999999998 141.47899999999998 194.05876999999998 160.11902 C 193.63026 181.54433 186.29208999999997 199.48802 172.04426999999998 213.95011 C 157.79644 228.41219 140.4955 235.64323 120.14145999999998 235.64323 L 86.07640999999998 235.64323 L 86.07640999999998 178.75903 L 116.92765999999997 178.75903 C 130.42560999999998 178.75903 137.17457999999996 171.47442999999998 137.17457999999996 156.90523 L 137.17457999999996 156.90521999999999 C 137.17457999999996 151.76314 136.58537999999996 147.69234999999998 135.40698999999995 144.69279999999998 C 134.22859999999994 141.69325999999998 132.24675999999994 139.55071999999998 129.46146999999996 138.26520999999997 C 127.31572999999996 137.40691999999996 102.93136999999996 118.98243999999997 102.93136999999996 109.66242999999997 C 102.93136999999996 100.34241999999998 128.51754999999997 85.46569999999997 129.46146999999996 82.98790999999997 C 130.10422999999997 80.63112999999997 130.42560999999995 76.77456999999997 130.42560999999995 71.41823999999997 C 130.42560999999995 66.06190999999997 128.65801999999994 62.31248999999997 125.12284999999994 60.16994999999997 C 123.16998999999994 58.98638999999997 120.67772999999994 58.12973999999997 117.64606999999994 57.59999999999997 L 57.599989999999934 57.59999999999997 L 57.599989999999934 125.04355999999999 L 57.172359999999934 125.04355999999999 C 57.17028999999993 140.23035 44.46022999999993 152.55519999999999 28.799999999999933 152.55519999999999 C 13.139729999999933 152.55519999999999 0.42970999999993253 140.23031999999998 0.42763999999993274 125.04355999999999 L 0.000009999999932730486 125.04355999999999 L 0.000009999999932730486 30.306849999999983 L 0.42763999999993274 30.306849999999983 C 0.42874999999993274 22.184489999999983 4.064889999999933 14.880759999999983 9.843299999999934 9.843349999999983 C 14.880709999999933 4.064909999999983 22.184459999999934 0.42873999999998347 30.306849999999933 0.4276399999999825 L 30.306849999999933 0.000009999999982468477 z M 14.0026 13.72919 C 3.136009999999999 24.595779999999998 3.136009999999999 42.2343 14.0026 53.100899999999996 C 24.86919 63.96749 42.507709999999996 63.96749 53.37431 53.100899999999996 C 64.2409 42.234309999999994 64.2409 24.595789999999997 53.37431 13.729189999999996 C 42.50772 2.862599999999995 24.869200000000003 2.862599999999995 14.002600000000001 13.729189999999996 z" stroke-linecap="round" />
</g>
		<g transform="matrix(0.96 0 0 0.96 -63.55 -84.67)" id="WNXIh5bkxMC1WlViIHlp-"  >
<filter id="SVGID_5" y="-26.77966102%" height="153.55932203999998%" x="-26.77966102%" width="153.55932203999998%" >
	<feGaussianBlur in="SourceAlpha" stdDeviation="1"></feGaussianBlur>
	<feOffset dx="2" dy="2" result="oBlur" ></feOffset>
	<feFlood flood-color="rgb(0,0,0)" flood-opacity="0.11"/>
	<feComposite in2="oBlur" operator="in" />
	<feMerge>
		<feMergeNode></feMergeNode>
		<feMergeNode in="SourceGraphic"></feMergeNode>
	</feMerge>
</filter>
<path style="stroke: rgb(26,34,80); stroke-width: 0; stroke-dasharray: none; stroke-linecap: butt; stroke-dashoffset: 0; stroke-linejoin: miter; stroke-miterlimit: 4; fill: rgb(238,238,238); fill-rule: nonzero; opacity: 1;filter: url(#SVGID_5);" vector-effect="non-scaling-stroke"  transform=" translate(-29.5, -29.5)" d="M 29.5 0 C 45.784 0 59 13.216 59 29.5 C 59 45.784 45.784 59 29.5 59 C 13.216000000000001 59 0 45.784 0 29.5 C 0 13.216000000000001 13.216 0 29.5 0 z" stroke-linecap="round" />
</g>
</g>
</g>
</svg>