<svg xmlns="http://www.w3.org/2000/svg" width="100" height="100" xmlns:v="https://vecta.io/nano"><g vector-effect="non-scaling-stroke" transform="matrix(.41145 0 0 .41183 50 50)"><linearGradient id="A" gradientUnits="userSpaceOnUse" x1="16.619" y1="12.229" x2="165.071" y2="215.633"><stop offset="0%" stop-color="#e9a9b9"/><stop offset="51.58677901949248%" stop-color="#a162b6"/><stop offset="100%" stop-color="#ae74cd"/></linearGradient><filter id="B" y="-22.12185184%" height="144.24370368%" x="-22.06123135%" width="144.1224627%"><feGaussianBlur in="SourceAlpha" stdDeviation="1"/><feOffset dx="2" dy="3" result="A"/><feFlood flood-color="#000" flood-opacity=".1"/><feComposite in2="A" operator="in"/><feMerge><feMergeNode/><feMergeNode in="SourceGraphic"/></feMerge></filter><path vector-effect="non-scaling-stroke" transform="translate(-97.029 -117.822)" d="M125.044 0v.428c3.141 0 6.159.544 8.972 1.546 12.358 2.901 23.16 9.124 32.405 18.667 13.926 13.926 20.89 30.638 20.89 50.135 0 14.141-4.071 27.103-12.212 38.887h0c12.641 14.998 18.961 31.817 18.961 50.457-.429 21.425-7.767 39.369-22.014 53.831s-31.549 21.693-51.903 21.693H86.076v-56.884h30.851c13.498 0 20.247-7.285 20.247-21.854h0c0-5.142-.589-9.213-1.768-12.212s-3.16-5.142-5.946-6.428c-2.146-.858-26.53-19.283-26.53-28.603s25.586-24.197 26.53-26.675c.643-2.357.964-6.213.964-11.57s-1.768-9.106-5.303-11.248c-1.953-1.184-4.445-2.04-7.477-2.57H57.6v67.444h-.428C57.17 140.23 44.46 152.555 28.8 152.555S.43 140.23.428 125.044H0V30.307h.428c.001-8.122 3.637-15.426 9.416-20.463C14.881 4.065 22.184.429 30.307.428V0zM14.003 13.729c-10.867 10.867-10.867 28.505 0 39.372s28.505 10.867 39.372 0 10.867-28.505 0-39.372-28.505-10.867-39.372 0z" fill="url(#A)" filter="url(#B)"/><g transform="matrix(.96 0 0 .96 -63.55 -84.67)"><filter id="C" y="-26.77966102%" height="153.55932203999998%" x="-26.77966102%" width="153.55932203999998%"><feGaussianBlur in="SourceAlpha" stdDeviation="1"/><feOffset dx="2" dy="2" result="A"/><feFlood flood-color="#000" flood-opacity=".11"/><feComposite in2="A" operator="in"/><feMerge><feMergeNode/><feMergeNode in="SourceGraphic"/></feMerge></filter><path vector-effect="non-scaling-stroke" transform="translate(-29.5 -29.5)" d="M29.5 0C45.784 0 59 13.216 59 29.5S45.784 59 29.5 59 0 45.784 0 29.5 13.216 0 29.5 0z" fill="#eee" filter="url(#C)"/></g></g></svg>